#!OML:ASF F:\VICON\USERDATA\INSTALL\rory3\rory3.ASF
:FULLY-SPECIFIED
:DEGREES
19
root -1.3676300000000006 17.9093 -21.044899999999945 4.657510000000002 -1.0021200000000037 -2.554320000000004
lfemur -48.95760000000004 5.607900000000001 -19.128699999999995
ltibia 83.38770000000005
lfoot 2.16148 -10.9668
ltoes -8.96896
rfemur 7.896070000000039 6.156300000000007 29.152000000000005
rtibia 36.23809999999999
rfoot 5.387159999999998 -5.053340000000002
rtoes -18.411900000000024
lowerback 1.0 1.9879 5.066710000000004
upperback -0.23157100000000014 3.5487700000000024 0.9946589999999998
thorax -7.852450000000002 1.5373899999999983 -2.5171499999999942
lowerneck -17.212299999999995 -5.311510000000002 -1.88221
upperneck 15.238999999999999 -7.188739999999999 2.245120000000002
head 7.67523 -3.314989999999999 0.21133499999999922
lclavicle 3.876299999999997e-15 2.6239600000000047e-14
lhumerus -66.14400000000003 -6.176149999999998 95.3981
lradius 92.42
lwrist 35.2409
lhand -28.7601 1.6837000000000035
lfingers 7.12502
lthumb -2.1199899999999996 31.652899999999995
rclavicle 3.876299999999997e-15 2.6239600000000047e-14
rhumerus -23.25829999999998 16.287499999999994 -92.9327
rradius 121.32400000000001
rwrist -22.152400000000004
rhand -19.5912 1.0
rfingers 7.12502
rthumb 6.734439999999999 16.75440000000001
20
root -1.3500699999999997 18.0043 -20.508099999999956 4.2001 0.15164499999999936 -2.312969999999997
lfemur -48.24250000000004 3.990429999999997 -19.3428
ltibia 78.76070000000003
lfoot 1.4780700000000002 -10.8887
ltoes -11.2123
rfemur 10.574599999999995 5.433550000000002 28.916899999999995
rtibia 33.607700000000044
rfoot 11.842099999999993 -5.431489999999997
rtoes -16.937300000000008
lowerback 1.0 1.8220499999999977 4.781820000000008
upperback -1.2839300000000007 3.4581299999999984 1.0751599999999997
thorax -10.147399999999998 1.4157199999999983 -2.3736600000000037
lowerneck -16.922199999999997 -5.451510000000001 -1.9318900000000003
upperneck 16.437500000000004 -7.3744299999999985 2.0310400000000017
head 8.020420000000001 -3.414710000000001 0.11662199999999967
lclavicle -4.348410000000002e-14 -3.101040000000004e-14
lhumerus -68.66699999999999 -5.196369999999999 95.277
lradius 93.18319999999999
lwrist 35.1734
lhand -28.628 0.9468600000000067
lfingers 7.12502
lthumb -1.9924 30.917300000000004
rclavicle -4.348410000000002e-14 -3.101040000000004e-14
rhumerus -24.593400000000003 16.142199999999995 -92.779
rradius 121.586
rwrist -21.0084
rhand -19.4436 1.0
rfingers 7.12502
rthumb 6.87694 16.1034
21
root -1.2259398193165585 17.8850674479291 -16.3097025760611 4.282203351134132 0.4550312384695018 -1.602370691326256
lfemur -47.26573597285119 2.9616526577611584 -19.42469963225731
ltibia 74.14447239714062
lfoot 1.1969926993852864 -10.826465500348553
ltoes -12.620061611034025
rfemur 12.507800489936974 5.102942188167059 28.840750995701917
rtibia 30.143869469421432
rfoot 17.01783605854926 -6.395676508539853
rtoes -17.763354843578767
lowerback 1.0 1.7485088713083607 5.011061047982921
upperback -1.000455159163929 3.3315456372301826 0.8845362529313601
thorax -9.489975789918152 1.3228894401037565 -2.2968333614249494
lowerneck -17.743769177092965 -5.625837322895003 -1.802533712173266
upperneck 16.74124010995051 -7.601174292798834 2.013817362372242
head 8.19176951269312 -3.499690984871017 0.09480114862122557
lclavicle 9.565495282106081e-15 9.857151338699738e-15
lhumerus -69.15550488979406 -4.6012419206458475 94.69430123531791
lradius 93.80807920387738
lwrist 35.156670284861896
lhand -28.253934046357866 0.7377439918872608
lfingers nan
lthumb -1.6430267886433305 30.6722353066908
rclavicle 9.297662114827474e-15 9.629815675625747e-15
rhumerus -23.750885947659917 15.92937481413774 -91.95724022909336
rradius 122.36529236535932
rwrist -21.24422669112851
rhand -18.676703436706713 1.0
rfingers nan
rthumb 7.607455802956123 13.971255431289123
22
root -1.1406708050634953 17.840838941747826 -15.529809255811816 3.9836276136479127 0.021404360862288252 -0.8878476832271834
lfemur -45.51987994089559 3.0120410331426726 -19.69456344296573
ltibia 69.27805281257011
lfoot 0.8692522751304601 -10.713018989737133
ltoes -12.566186694413535
rfemur 14.586670656347897 5.759314460171359 28.54136403772041
rtibia 27.274533882927464
rfoot 21.42950890715234 -6.535113795129141
rtoes -20.70611261255046
lowerback 1.0 1.9511724128143362 4.839163996438072
upperback -0.5829802331826662 3.5871764625544365 0.6640465947463072
thorax -8.901016622601233 1.4581043983153013 -2.414017094539418
lowerneck -18.261349084979788 -5.827802268723721 -1.7615693410683173
upperneck 17.14193551643705 -7.799905978313377 2.078872925638099
head 8.373912312089008 -3.5956525046800936 0.10355231705754353
lclavicle -3.89459751436627e-14 -1.9824220392329352e-14
lhumerus -69.80963482620851 -3.919425158776171 94.13695865570661
lradius 94.65314068882745
lwrist 35.275811142830605
lhand -27.62415561980491 0.2723497216384603
lfingers nan
lthumb -1.0399124470502934 30.18305677210626
rclavicle -3.905011600456294e-14 -1.9909434971520993e-14
rhumerus -23.704271942005533 15.938808986678229 -91.4200613013778
rradius 123.28043576941016
rwrist -21.10142875278635
rhand -18.457345964784032 1.0
rfingers nan
rthumb 7.829006540472099 10.715770654789226
23
root -0.9976983861922628 17.905397681323976 -14.911304377389492 4.31479980042473 -0.9717702988660346 -0.27475147285167856
lfemur -44.190158538737776 3.161124081459683 -20.168179437442486
ltibia 64.33676540730855
lfoot 0.23946493193444462 -9.497639359628561
ltoes -13.013436850635884
rfemur 15.590853762985843 7.158990975134518 27.67179532081575
rtibia 25.350748055057288
rfoot 26.302419818923276 -4.451740770640091
rtoes -15.011661313652112
lowerback 1.0 2.2640020894619286 4.985268808073755
upperback -0.20940588420402517 4.090353052573289 0.25032484313766334
thorax -7.149678510105396 1.5022164760171377 -2.5494324508807766
lowerneck -18.002658093376002 -5.967894321491633 -1.7423811753278637
upperneck 17.30911641163148 -7.961911382017135 2.1617962601390457
head 8.405167137879594 -3.6871628115971453 0.1333770104385058
lclavicle -4.023635975775189e-14 1.1621728032921467e-14
lhumerus -70.69862983690014 -3.2016644673775585 93.53263932246676
lradius 95.75676833199347
lwrist 35.31678224756586
lhand -27.240210516112306 -0.4802404174132624
lfingers nan
lthumb -0.6634964365226323 29.438524351046397
rclavicle -4.011084481259824e-14 1.1800207836907755e-14
rhumerus -24.31453850655843 15.958183895113896 -91.10082838640417
rradius 123.23653431867909
rwrist -19.741639639613307
rhand -18.85254692049452 1.0
rfingers nan
rthumb 7.444676879310531 12.904535596004619
24
root -1.0281267605979645 17.91612871867282 -15.559048117376193 4.3617865876904 -0.10591856146479728 -0.1204923761735086
lfemur -43.595194055771046 2.1088074619851613 -19.930297519595847
ltibia 59.21421435731057
lfoot 1.034545079108594 -10.583152447511637
ltoes -12.305082375949787
rfemur 16.253710017666982 7.298136350274595 28.800944723564
rtibia 24.708118311135017
rfoot 28.604094586562447 -4.954352172520903
rtoes -9.099061808491264
lowerback 1.0 2.095060634577707 4.674782566763425
upperback -0.4428582022124201 3.8087417008174236 0.2653027390874705
thorax -7.932288197587324 1.3302634926623624 -2.0933693087658702
lowerneck -17.747834461536126 -6.106387158893479 -1.6922596262304213
upperneck 17.57231454115364 -8.09677394499364 2.3644887831198655
head 8.491432821293284 -3.741379400815836 0.18120777279541722
lclavicle 4.4954199713230893e-14 3.802360567178879e-14
lhumerus -71.58555527410556 -2.5844619427738484 92.9473758592529
lradius 97.04054982751289
lwrist 35.25749025139993
lhand -28.117900790765724 -0.7079775549306104
lfingers nan
lthumb -1.5084616986842057 29.224875762952156
rclavicle 4.4953164124062834e-14 3.825524387381028e-14
rhumerus -25.14941568563244 15.851370820822334 -90.80888868704875
rradius 123.30004847358462
rwrist -19.916889594947506
rhand -18.923497971307246 1.0
rfingers nan
rthumb 7.354063158805853 13.990873265144709
25
root -1.0787651242047922 17.93727136166757 -15.890397088100425 4.748340335182947 0.8410306097117792 -0.1347965101579455
lfemur -42.994220846442886 1.0356434543529787 -19.64071240061378
ltibia 54.340253569687356
lfoot 1.4261183139738938 -12.382087331002602
ltoes -13.04254338363457
rfemur 16.00258226744065 7.275503336436797 30.026130244668654
rtibia 25.373545686022297
rfoot 29.790904938914778 -5.6560466726961405
rtoes 2.2433425488007903
lowerback 1.0 1.8740166209975144 4.234898856098161
upperback -0.9664384761827104 3.3976975284162143 0.3454039531047658
thorax -8.911747808438122 1.161842003084602 -1.7024046195515932
lowerneck -18.02686869028546 -6.225114003071112 -1.727808004594289
upperneck 17.815111976039613 -8.206011626349614 2.5114850678854097
head 8.634343402008753 -3.791622164600367 0.2258065430451619
lclavicle 4.9552160834496424e-14 2.536605223761246e-14
lhumerus -72.28188656856159 -2.000224175728805 92.40388236074004
lradius 98.2545175259121
lwrist 35.28567595383124
lhand -28.178449981747303 -0.8908987885745487
lfingers nan
lthumb -1.5697060822388404 29.064273155402862
rclavicle 5.024935823585572e-14 2.5811444144366753e-14
rhumerus -26.14427356192015 15.894891147073855 -90.68634382821033
rradius 123.26243166154865
rwrist -19.940737654030343
rhand -19.427319267492596 1.0
rfingers nan
rthumb 6.874293392070429 13.461612206064357
